<?xml version="1.0" encoding="UTF-8" standalone="no"?>
<svg xmlns="http://www.w3.org/2000/svg" width="512" height="512" viewBox="0 0 512 512">
  <!-- Outer ring -->
  <circle cx="256" cy="256" r="230" fill="#46C646"/>
  <circle cx="256" cy="256" r="190" fill="#FFFFFF"/>

  <!-- Notebook body (rounded rect) -->
  <defs>
    <clipPath id="notebookClip">
      <rect x="166" y="140" width="260" height="300" rx="26" ry="26" />
    </clipPath>
  </defs>
  <!-- Right (lighter) -->
  <rect x="166" y="140" width="260" height="300" rx="26" ry="26" fill="#46C646"/>
  <!-- Left (darker) overlay to create two-tone -->
  <rect x="166" y="140" width="120" height="300" rx="26" ry="26" fill="#009845" clip-path="url(#notebookClip)"/>

  <!-- Binding discs (rounded "tabs") -->
  <rect x="178" y="190" width="36" height="18" rx="9" ry="9" fill="#009845"/>
  <rect x="178" y="240" width="36" height="18" rx="9" ry="9" fill="#009845"/>
  <rect x="178" y="290" width="36" height="18" rx="9" ry="9" fill="#009845"/>

  <!-- Page lines (rounded) -->
  <rect x="250" y="210" width="140" height="18" rx="9" ry="9" fill="#BFBFBF"/>
  <rect x="250" y="255" width="112" height="18" rx="9" ry="9" fill="#BFBFBF"/>
  <rect x="250" y="300" width="100" height="18" rx="9" ry="9" fill="#BFBFBF"/>
</svg>
